<svg width="105" height="123" viewBox="0 0 105 123" fill="none" xmlns="http://www.w3.org/2000/svg">
<path d="M50.6383 11.148H54.3617C68.7564 11.148 80.4255 22.794 80.4255 37.1601H91.5957C91.5957 16.6372 74.9255 0 54.3617 0H50.6383C30.0745 0 13.4043 16.6372 13.4043 37.1601V55.3686H3.7234C1.66702 55.3686 0 57.0323 0 59.0846V119.284C0 121.336 1.66703 123 3.72341 123H101.277C103.333 123 105 121.336 105 119.284V59.0846C105 57.0323 103.333 55.3686 101.277 55.3686H91.5957H80.4255H24.5745V37.1601C24.5745 22.794 36.2436 11.148 50.6383 11.148Z" fill="black"/>
</svg>
