<svg width="61" height="88" viewBox="0 0 61 88" fill="none" xmlns="http://www.w3.org/2000/svg">
<path fill-rule="evenodd" clip-rule="evenodd" d="M5.27637 82.9537L55.9494 44.0919C55.9629 44.0815 55.9716 44.0733 55.9771 44.0677C55.9802 44.0644 55.9822 44.062 55.9834 44.0605C55.9871 44.056 55.9891 44.0526 55.9907 44.0493C55.9943 44.0417 56 44.0248 56 44C56 43.9753 55.9943 43.9583 55.9907 43.9507C55.9891 43.9474 55.9871 43.944 55.9834 43.9395C55.9801 43.9355 55.9707 43.9244 55.9494 43.9081L5.27635 5.04626C5.23413 5.01387 5.21075 5.00485 5.20674 5.00332C5.20153 5.00134 5.19831 5.00066 5.19334 5.00026C5.17907 4.99914 5.13564 5.00107 5.0794 5.02852C5.03371 5.05081 5.01113 5.07444 5.00406 5.08282C5.00374 5.08445 5.00336 5.08663 5.00295 5.0894C5.00176 5.09748 5 5.1133 5 5.13813L5 82.8619C5 82.8867 5.00176 82.9025 5.00294 82.9106C5.00329 82.913 5.00362 82.9149 5.00391 82.9164M5.00407 82.9172C5.01115 82.9256 5.03373 82.9492 5.0794 82.9715C5.13564 82.9989 5.17908 83.0009 5.19335 82.9997C5.19832 82.9993 5.20154 82.9987 5.20675 82.9967C5.21076 82.9951 5.23414 82.9861 5.27637 82.9537M58.9922 48.0594C61.6693 46.0063 61.6693 41.9937 58.9922 39.9406L8.31913 1.0787C4.92484 -1.52443 3.60792e-06 0.878705 3.42047e-06 5.13813L0 82.8619C0 87.1213 4.92485 89.5244 8.31914 86.9213L58.9922 48.0594Z" fill="white"/>
</svg>
