<svg width="31" height="35" viewBox="0 0 31 35" fill="none" xmlns="http://www.w3.org/2000/svg">
<path fill-rule="evenodd" clip-rule="evenodd" d="M3.83976 15.7553V10.574C3.83976 4.73415 8.61509 0 14.5058 0H15.5724C21.463 0 26.2384 4.73415 26.2384 10.574V15.7553H29.0115C29.6006 15.7553 30.0781 16.2287 30.0781 16.8127V33.9426C30.0781 34.5266 29.6006 35 29.0115 35H1.0666C0.477534 35 0 34.5266 0 33.9426V16.8127C0 16.2287 0.477533 15.7553 1.0666 15.7553H3.83976ZM14.5058 3.17221H15.5724C19.6958 3.17221 23.0386 6.48611 23.0386 10.574V15.7553H7.03956V10.574C7.03956 6.48611 10.3823 3.17221 14.5058 3.17221Z" fill="#E30613"/>
</svg>
