<svg width="25" height="25" viewBox="0 0 25 25" fill="none" xmlns="http://www.w3.org/2000/svg">
<path d="M5.98424 5.98424C6.21129 5.75719 6.57941 5.75719 6.80646 5.98424L12.4419 11.6196L18.0773 5.98424C18.3043 5.75719 18.6724 5.75719 18.8995 5.98424C19.1265 6.21129 19.1265 6.57941 18.8995 6.80646L13.2641 12.4419L18.8995 18.0773C19.1265 18.3043 19.1265 18.6724 18.8995 18.8995C18.6724 19.1265 18.3043 19.1265 18.0773 18.8995L12.4419 13.2641L6.80646 18.8995C6.57941 19.1265 6.21129 19.1265 5.98424 18.8995C5.75719 18.6724 5.75719 18.3043 5.98424 18.0773L11.6196 12.4419L5.98424 6.80646C5.75719 6.57941 5.75719 6.21129 5.98424 5.98424Z" fill="#E30613"/>
<path fill-rule="evenodd" clip-rule="evenodd" d="M12.5 25C19.4036 25 25 19.4036 25 12.5C25 5.59644 19.4036 0 12.5 0C5.59644 0 0 5.59644 0 12.5C0 19.4036 5.59644 25 12.5 25ZM12.5 23.8372C18.7614 23.8372 23.8372 18.7614 23.8372 12.5C23.8372 6.23863 18.7614 1.16279 12.5 1.16279C6.23863 1.16279 1.16279 6.23863 1.16279 12.5C1.16279 18.7614 6.23863 23.8372 12.5 23.8372Z" fill="#E30613"/>
</svg>
