<svg width="19" height="25" viewBox="0 0 19 25" fill="none" xmlns="http://www.w3.org/2000/svg">
<path fill-rule="evenodd" clip-rule="evenodd" d="M1.13233 0.563063C1.13233 0.252092 0.878847 0 0.566164 0C0.253481 0 8.92512e-07 0.252092 8.92512e-07 0.563063L0 24.4369C-1.16256e-08 24.7479 0.25348 25 0.566163 25C0.878846 25 1.13233 24.7479 1.13233 24.4369L1.13233 14.9775H17.7844C18.7543 14.9775 19.2753 13.8439 18.6406 13.1144L14.6763 8.55856L18.6406 4.00268C19.2753 3.27326 18.7543 2.13964 17.7844 2.13964H1.13233V0.563063ZM1.13233 3.26577L1.13233 13.8514H17.7844L13.8201 9.29547C13.452 8.87241 13.452 8.24471 13.8201 7.82165L17.7844 3.26577H1.13233Z" fill="#E30613"/>
</svg>
