<svg width="50" height="50" viewBox="0 0 50 50" fill="none" xmlns="http://www.w3.org/2000/svg">
<path d="M17.4419 34.4021L9.89199 26.8522C9.43789 26.3981 8.70165 26.3981 8.24755 26.8522C7.79345 27.3063 7.79345 28.0425 8.24755 28.4966L16.6196 36.8687C17.0737 37.3228 17.81 37.3228 18.2641 36.8687L39.1943 15.9385C39.6484 15.4844 39.6484 14.7482 39.1943 14.2941C38.7402 13.84 38.004 13.84 37.5499 14.2941L17.4419 34.4021Z" fill="#E30613"/>
<path fill-rule="evenodd" clip-rule="evenodd" d="M25 50C38.8071 50 50 38.8071 50 25C50 11.1929 38.8071 0 25 0C11.1929 0 0 11.1929 0 25C0 38.8071 11.1929 50 25 50ZM25 47.6744C37.5227 47.6744 47.6744 37.5227 47.6744 25C47.6744 12.4773 37.5227 2.32558 25 2.32558C12.4773 2.32558 2.32558 12.4773 2.32558 25C2.32558 37.5227 12.4773 47.6744 25 47.6744Z" fill="#E30613"/>
</svg>
