<svg width="215" height="215" viewBox="0 0 215 215" fill="none" xmlns="http://www.w3.org/2000/svg">
<path d="M75 147.929L42.5355 115.464C40.5829 113.512 37.4171 113.512 35.4645 115.464C33.5118 117.417 33.5118 120.583 35.4645 122.536L71.4645 158.536C73.4171 160.488 76.5829 160.488 78.5355 158.536L168.536 68.5355C170.488 66.5829 170.488 63.4171 168.536 61.4645C166.583 59.5118 163.417 59.5118 161.464 61.4645L75 147.929Z" fill="black"/>
<path fill-rule="evenodd" clip-rule="evenodd" d="M107.5 215C166.871 215 215 166.871 215 107.5C215 48.1294 166.871 0 107.5 0C48.1294 0 0 48.1294 0 107.5C0 166.871 48.1294 215 107.5 215ZM107.5 205C161.348 205 205 161.348 205 107.5C205 53.6522 161.348 10 107.5 10C53.6522 10 10 53.6522 10 107.5C10 161.348 53.6522 205 107.5 205Z" fill="black"/>
</svg>
