<svg width="25" height="25" viewBox="0 0 25 25" fill="none" xmlns="http://www.w3.org/2000/svg">
<path d="M8.72093 17.201L4.94599 13.4261C4.71894 13.1991 4.35082 13.1991 4.12378 13.4261C3.89673 13.6531 3.89673 14.0213 4.12378 14.2483L8.30982 18.4344C8.53687 18.6614 8.90499 18.6614 9.13204 18.4344L19.5972 7.96925C19.8242 7.7422 19.8242 7.37408 19.5972 7.14703C19.3701 6.91998 19.002 6.91998 18.7749 7.14703L8.72093 17.201Z" fill="white"/>
<path fill-rule="evenodd" clip-rule="evenodd" d="M12.5 25C19.4036 25 25 19.4036 25 12.5C25 5.59644 19.4036 0 12.5 0C5.59644 0 0 5.59644 0 12.5C0 19.4036 5.59644 25 12.5 25ZM12.5 23.8372C18.7614 23.8372 23.8372 18.7614 23.8372 12.5C23.8372 6.23863 18.7614 1.16279 12.5 1.16279C6.23863 1.16279 1.16279 6.23863 1.16279 12.5C1.16279 18.7614 6.23863 23.8372 12.5 23.8372Z" fill="white"/>
</svg>
