<svg width="105" height="88" viewBox="0 0 105 88" fill="none" xmlns="http://www.w3.org/2000/svg">
<path fill-rule="evenodd" clip-rule="evenodd" d="M0 4.18268C0 1.87265 1.88354 0 4.20701 0H100.793C103.116 0 105 1.87265 105 4.18268V63.4373C105 65.7473 103.116 67.62 100.793 67.62H36.9502L22.2503 86.3797C19.7895 89.5201 14.7245 87.79 14.7245 83.8091V67.62H4.20701C1.88355 67.62 0 65.7473 0 63.4373V4.18268ZM37.1608 67.3513C37.1604 67.3517 37.1601 67.3522 37.1597 67.3526L37.1608 67.3513ZM4.90818 4.87979V62.7402H15.4257C17.7492 62.7402 19.6327 64.6128 19.6327 66.9229V81.78L33.2889 64.3523C34.086 63.335 35.3106 62.7402 36.6076 62.7402H100.092V4.87979H4.90818Z" fill="white"/>
</svg>
