<svg width="181" height="212" viewBox="0 0 181 212" fill="none" xmlns="http://www.w3.org/2000/svg">
<path fill-rule="evenodd" clip-rule="evenodd" d="M23.1064 95.432V64.0483C23.1064 28.6754 51.8427 0 87.2908 0H93.7092C129.157 0 157.894 28.6754 157.894 64.0483V95.432H174.582C178.126 95.432 181 98.2996 181 101.837V205.595C181 209.132 178.126 212 174.582 212H6.41844C2.87364 212 0 209.132 0 205.595V101.837C0 98.2996 2.87363 95.432 6.41844 95.432H23.1064ZM87.2908 19.2145H93.7092C118.523 19.2145 138.638 39.2873 138.638 64.0483V95.432H42.3617V64.0483C42.3617 39.2873 62.4771 19.2145 87.2908 19.2145Z" fill="black"/>
</svg>
