<svg width="35" height="35" viewBox="0 0 35 35" fill="none" xmlns="http://www.w3.org/2000/svg">
<path d="M12.2093 24.0815L6.92439 18.7965C6.60652 18.4787 6.09115 18.4787 5.77329 18.7965C5.45542 19.1144 5.45542 19.6298 5.77329 19.9476L11.6338 25.8081C11.9516 26.126 12.467 26.126 12.7849 25.8081L27.436 11.1569C27.7539 10.8391 27.7539 10.3237 27.436 10.0058C27.1181 9.68797 26.6028 9.68797 26.2849 10.0058L12.2093 24.0815Z" fill="#4A7856"/>
<path fill-rule="evenodd" clip-rule="evenodd" d="M17.5 35C27.165 35 35 27.165 35 17.5C35 7.83502 27.165 0 17.5 0C7.83502 0 0 7.83502 0 17.5C0 27.165 7.83502 35 17.5 35ZM17.5 33.3721C26.2659 33.3721 33.3721 26.2659 33.3721 17.5C33.3721 8.73409 26.2659 1.62791 17.5 1.62791C8.73409 1.62791 1.62791 8.73409 1.62791 17.5C1.62791 26.2659 8.73409 33.3721 17.5 33.3721Z" fill="#4A7856"/>
</svg>
