<svg width="215" height="215" viewBox="0 0 215 215" fill="none" xmlns="http://www.w3.org/2000/svg">
<path fill-rule="evenodd" clip-rule="evenodd" d="M107.5 215C166.871 215 215 166.871 215 107.5C215 48.1294 166.871 0 107.5 0C48.1294 0 0 48.1294 0 107.5C0 166.871 48.1294 215 107.5 215ZM175 177.856C193.49 160.112 205 135.15 205 107.5C205 53.6522 161.348 10 107.5 10C53.6522 10 10 53.6522 10 107.5C10 134.648 21.0959 159.205 39 176.883V163C39 139.82 56.5258 120.734 79.0493 118.269C68.6618 110.026 62 97.291 62 83C62 58.1472 82.1472 38 107 38C131.853 38 152 58.1472 152 83C152 97.291 145.338 110.026 134.951 118.269C157.474 120.734 175 139.82 175 163V177.856ZM165 186.248V163C165 143.67 149.33 128 130 128H84C64.67 128 49 143.67 49 163V185.507C65.2954 197.747 85.5507 205 107.5 205C129.003 205 148.879 198.039 165 186.248ZM107 118C126.33 118 142 102.33 142 83C142 63.67 126.33 48 107 48C87.67 48 72 63.67 72 83C72 102.33 87.67 118 107 118Z" fill="white"/>
</svg>
