<svg width="50" height="50" viewBox="0 0 50 50" fill="none" xmlns="http://www.w3.org/2000/svg">
<path d="M11.9685 11.9685C12.4226 11.5144 13.1588 11.5144 13.6129 11.9685L24.8837 23.2393L36.1545 11.9685C36.6086 11.5144 37.3449 11.5144 37.799 11.9685C38.2531 12.4226 38.2531 13.1588 37.799 13.6129L26.5282 24.8837L37.799 36.1545C38.2531 36.6086 38.2531 37.3449 37.799 37.799C37.3449 38.2531 36.6086 38.2531 36.1545 37.799L24.8837 26.5282L13.6129 37.799C13.1588 38.2531 12.4226 38.2531 11.9685 37.799C11.5144 37.3449 11.5144 36.6086 11.9685 36.1545L23.2393 24.8837L11.9685 13.6129C11.5144 13.1588 11.5144 12.4226 11.9685 11.9685Z" fill="white"/>
<path fill-rule="evenodd" clip-rule="evenodd" d="M25 50C38.8071 50 50 38.8071 50 25C50 11.1929 38.8071 0 25 0C11.1929 0 0 11.1929 0 25C0 38.8071 11.1929 50 25 50ZM25 47.6744C37.5227 47.6744 47.6744 37.5227 47.6744 25C47.6744 12.4773 37.5227 2.32558 25 2.32558C12.4773 2.32558 2.32558 12.4773 2.32558 25C2.32558 37.5227 12.4773 47.6744 25 47.6744Z" fill="white"/>
</svg>
