<svg width="183" height="212" viewBox="0 0 183 212" fill="none" xmlns="http://www.w3.org/2000/svg">
<path fill-rule="evenodd" clip-rule="evenodd" d="M65.0055 72.5263C65.0055 55.6356 79.3382 41.5885 97.4648 41.5885C115.591 41.5885 129.924 55.6356 129.924 72.5263C129.924 88.0248 117.877 101.112 101.875 103.181C96.98 103.814 92.393 107.863 92.393 113.608V131.105C92.393 133.906 94.6638 136.177 97.4648 136.177C100.266 136.177 102.537 133.906 102.537 131.105V113.608C102.537 113.608 102.537 113.608 102.537 113.608C102.54 113.6 102.557 113.563 102.608 113.51C102.721 113.392 102.925 113.274 103.176 113.241C123.843 110.569 140.068 93.5097 140.068 72.5263C140.068 49.6419 120.794 31.445 97.4648 31.445C74.1358 31.445 54.862 49.6419 54.862 72.5263C54.862 75.3274 57.1327 77.5981 59.9337 77.5981C62.7348 77.5981 65.0055 75.3274 65.0055 72.5263ZM102.537 113.608C102.536 113.609 102.536 113.608 102.537 113.608C102.537 113.608 102.537 113.608 102.537 113.608Z" fill="white"/>
<path d="M102.537 159.254C102.537 156.453 100.266 154.182 97.4648 154.182C94.6638 154.182 92.393 156.453 92.393 159.254V161.789C92.393 164.591 94.6638 166.861 97.4648 166.861C100.266 166.861 102.537 164.591 102.537 161.789V159.254Z" fill="white"/>
<path fill-rule="evenodd" clip-rule="evenodd" d="M18.3452 82.1627C18.3452 84.6245 18.4536 87.0622 18.6661 89.4712L1.00161 126.483C-2.21138 133.215 2.69655 140.995 10.156 140.995H18.3452V169.406C18.3452 181.608 29.0402 191.049 41.1486 189.536L54.862 187.822V201.856C54.862 207.459 59.4034 212 65.0055 212H152.24C157.842 212 162.383 207.459 162.383 201.856V136.221C175.013 121.777 182.671 102.858 182.671 82.1627C182.671 36.7855 145.885 0 100.508 0C55.1307 0 18.3452 36.7855 18.3452 82.1627ZM100.508 10.1435C60.7328 10.1435 28.4887 42.3876 28.4887 82.1627C28.4887 84.8271 28.6332 87.4559 28.9144 90.042C29.061 91.3901 28.665 92.6722 27.9015 93.6705L10.156 130.852H23.417C26.218 130.852 28.4887 133.122 28.4887 135.923V169.406C28.4887 175.507 33.8362 180.228 39.8904 179.471L59.2257 177.054C59.3544 177.036 59.4846 177.023 59.6162 177.015C60.2067 176.977 60.7827 177.043 61.325 177.198C62.8039 177.619 64.0072 178.694 64.602 180.091C64.8223 180.608 64.9592 181.17 64.9957 181.758C65.0042 181.892 65.0074 182.025 65.0055 182.157V201.856H152.24V134.909C152.24 134.134 152.414 133.4 152.724 132.743C152.913 131.93 153.305 131.153 153.905 130.49C165.482 117.708 172.527 100.764 172.527 82.1627C172.527 42.3876 140.283 10.1435 100.508 10.1435Z" fill="white"/>
</svg>
