<svg width="327" height="212" viewBox="0 0 327 212" fill="none" xmlns="http://www.w3.org/2000/svg">
<path fill-rule="evenodd" clip-rule="evenodd" d="M194.849 98.026C208.541 88.2202 217.462 72.1776 217.462 54.051C217.462 24.1995 193.266 0 163.418 0C133.571 0 109.374 24.1995 109.374 54.051C109.374 72.1776 118.296 88.2202 131.987 98.026C124.965 98.5204 118.318 100.372 112.305 103.319C105.299 93.8268 95.186 86.768 83.468 83.6437C94.4231 76.4351 101.655 64.0286 101.655 49.9328C101.655 27.6626 83.6035 9.60907 61.3362 9.60907C39.0688 9.60907 21.0176 27.6626 21.0176 49.9328C21.0176 63.8412 28.0582 76.1049 38.7694 83.3535C16.5559 88.8433 0.0858039 108.908 0.0858039 132.821V145.751C0.0763021 146.535 0.257834 147.314 0.618544 148.015C0.907858 148.578 1.31245 149.09 1.82618 149.515C1.9243 149.596 2.02569 149.674 2.13015 149.747C18.4609 161.538 39.0322 168.54 61.3357 168.54C68.5508 168.54 75.5846 167.807 82.3523 166.417V182.503C82.3507 182.632 82.3538 182.761 82.3615 182.89C82.406 183.659 82.6113 184.385 82.9441 185.034C83.2747 185.682 83.7408 186.271 84.335 186.756C84.4365 186.839 84.5411 186.919 84.6485 186.995C106.365 202.678 133.733 212 163.418 212C193.104 212 220.472 202.678 242.188 186.994C242.295 186.919 242.4 186.84 242.501 186.757C243.095 186.272 243.562 185.682 243.893 185.034C244.293 184.249 244.495 183.378 244.484 182.503V166.475C251.165 167.828 258.103 168.54 265.217 168.54C287.52 168.54 308.091 161.538 324.422 149.747C324.527 149.674 324.628 149.596 324.726 149.515C325.24 149.09 325.644 148.578 325.934 148.015C326.294 147.314 326.476 146.535 326.467 145.751V132.821C326.467 108.908 309.996 88.8433 287.783 83.3535C298.494 76.1049 305.535 63.8412 305.535 49.9328C305.535 27.6626 287.483 9.60907 265.216 9.60907C242.949 9.60907 224.898 27.6626 224.898 49.9328C224.898 64.0286 232.129 76.4351 243.084 83.6437C231.408 86.7568 221.326 93.7763 214.323 103.217C208.365 100.329 201.79 98.5147 194.849 98.026ZM163.418 97.2918C187.297 97.2918 206.654 77.9322 206.654 54.051C206.654 30.1698 187.297 10.8102 163.418 10.8102C139.54 10.8102 120.183 30.1698 120.183 54.051C120.183 77.9322 139.54 97.2918 163.418 97.2918ZM82.3523 156.585V151.343C82.3523 133.71 90.8892 118.072 104.055 108.336C96.1696 98.084 83.78 91.4769 69.8474 91.4769H51.0321C28.2015 91.4769 9.69364 109.987 9.69364 132.821V143.316C24.07 153.107 41.9343 158.931 61.3357 158.931C68.5901 158.931 75.6297 158.117 82.3523 156.585ZM265.217 158.931C258.064 158.931 251.121 158.139 244.484 156.65V151.343C244.484 133.629 235.869 117.928 222.601 108.203C230.49 98.0267 242.833 91.4769 256.705 91.4769H275.52C298.351 91.4769 316.859 109.987 316.859 132.821V143.316C302.482 153.107 284.618 158.931 265.217 158.931ZM233.676 179.771V151.343C233.676 127.793 214.587 108.703 191.041 108.703H135.796C112.249 108.703 93.1611 127.793 93.1611 151.343V179.771C112.68 193.198 137 201.19 163.418 201.19C189.836 201.19 214.157 193.198 233.676 179.771ZM265.216 80.6475C282.177 80.6475 295.927 66.8961 295.927 49.9328C295.927 32.9696 282.177 19.2181 265.216 19.2181C248.255 19.2181 234.505 32.9696 234.505 49.9328C234.505 66.8961 248.255 80.6475 265.216 80.6475ZM30.6254 49.9328C30.6254 66.8961 44.3751 80.6475 61.3362 80.6475C78.2972 80.6475 92.0469 66.8961 92.0469 49.9328C92.0469 32.9696 78.2972 19.2181 61.3362 19.2181C44.3751 19.2181 30.6254 32.9696 30.6254 49.9328Z" fill="white"/>
</svg>
