<svg width="61" height="88" viewBox="0 0 61 88" fill="none" xmlns="http://www.w3.org/2000/svg">
<path fill-rule="evenodd" clip-rule="evenodd" d="M30.5 5.16049C16.4796 5.16049 5.11377 16.6301 5.11377 30.7787C5.11377 35.5531 6.40562 40.0152 8.65429 43.837C8.69264 43.9022 8.72782 43.9684 8.75988 44.0354L30.4826 82.1004L52.3511 43.8402L52.3457 43.837C54.5944 40.0152 55.8862 35.5531 55.8862 30.7787C55.8862 16.6301 44.5204 5.16049 30.5 5.16049ZM57.1808 45.7022C59.6145 41.2798 61 36.189 61 30.7787C61 13.7801 47.3447 0 30.5 0C13.6553 0 0 13.7801 0 30.7787C0 36.0939 1.33722 41.1008 3.6919 45.4684C3.72735 45.5484 3.76715 45.6272 3.8114 45.7048L26.6837 85.7842C28.3691 88.7375 32.5916 88.7389 34.279 85.7868L57.1879 45.7063L57.1808 45.7022Z" fill="white"/>
</svg>
