<svg width="43" height="50" viewBox="0 0 43 50" fill="none" xmlns="http://www.w3.org/2000/svg">
<path d="M20.5847 4.53172H22.0983C27.9497 4.53172 32.6933 9.26587 32.6933 15.1057H37.234C37.234 6.76307 30.4575 0 22.0983 0H20.5847C12.2254 0 5.44888 6.76307 5.44888 15.1057V22.5076H1.51358C0.677652 22.5076 0 23.1839 0 24.0181V48.4894C0 49.3237 0.677653 50 1.51358 50H41.1693C42.0053 50 42.6829 49.3237 42.6829 48.4894V24.0181C42.6829 23.1839 42.0053 22.5076 41.1693 22.5076H37.234H32.6933H9.98962V15.1057C9.98962 9.26587 14.7332 4.53172 20.5847 4.53172Z" fill="#E30613"/>
</svg>
