<svg width="222" height="212" viewBox="0 0 222 212" fill="none" xmlns="http://www.w3.org/2000/svg">
<path fill-rule="evenodd" clip-rule="evenodd" d="M100.922 10.3785L37.5054 63.1169L46.1384 73.4906L57.7734 73.4725C58.1495 73.4719 58.5223 73.4999 58.889 73.5551L58.9092 73.5551L58.9093 73.5582C60.6829 73.8306 62.312 74.7412 63.4762 76.1401L120.941 145.192L191.068 136.886L109.006 38.2766C107.842 36.8778 107.243 35.1107 107.298 33.3177L107.295 33.3172L107.298 33.2968C107.311 32.9264 107.351 32.555 107.42 32.1856L109.555 20.7523L100.922 10.3785ZM117.031 33.0415L119.175 21.6271C119.582 19.4598 119 17.2239 117.59 15.5287L106.887 2.66783C104.272 -0.474267 99.6043 -0.902439 96.4611 1.71149L29.792 57.1544C26.6488 59.7683 26.2205 64.4345 28.8353 67.5766L39.5381 80.4375C40.9489 82.1327 43.0424 83.1107 45.2483 83.1051L56.8663 83.0754L143.827 187.57C143.972 187.745 144.118 187.92 144.264 188.096C151.063 196.269 158.827 205.603 168.551 209.744C173.744 211.955 179.476 212.706 185.796 211.252C192.02 209.82 198.527 206.318 205.502 200.517C212.478 194.716 217.107 188.958 219.648 183.101C222.228 177.153 222.532 171.381 221.303 165.875C218.999 155.563 211.231 146.232 204.429 138.062C204.283 137.886 204.137 137.711 203.991 137.536L117.031 33.0415ZM198.323 145.608L128.2 153.914L151.144 181.485C158.516 190.343 164.902 197.848 172.281 200.99C175.744 202.464 179.427 202.953 183.662 201.979C187.992 200.983 193.179 198.389 199.415 193.202C205.652 188.016 209.147 183.39 210.915 179.315C212.644 175.33 212.833 171.621 212.013 167.948C210.397 160.714 204.96 153.635 198.323 145.608ZM22.1048 83.997C24.5101 79.8389 30.5189 79.8409 32.9215 84.0006L51.5334 116.226C51.5951 116.332 51.6522 116.44 51.7047 116.55C53.8039 120.427 54.9949 124.866 54.9949 129.57C54.9949 144.73 42.6724 157 27.4975 157C12.3225 157 0 144.73 0 129.57C0 124.867 1.19049 120.429 3.28889 116.552C3.3422 116.441 3.40019 116.331 3.46297 116.223L22.1048 83.997ZM12.1604 120.195C12.1168 120.279 12.0704 120.362 12.0213 120.445C10.4318 123.114 9.51835 126.229 9.51835 129.57C9.51835 139.453 17.5564 147.485 27.4975 147.485C37.4385 147.485 45.4766 139.453 45.4766 129.57C45.4766 126.229 44.5632 123.114 42.9736 120.445L42.9781 120.442L27.5098 93.6606L12.1604 120.195Z" fill="white"/>
</svg>
