<svg width="132" height="212" viewBox="0 0 132 212" fill="none" xmlns="http://www.w3.org/2000/svg">
<path fill-rule="evenodd" clip-rule="evenodd" d="M66 28.609C48.0767 28.609 33.547 43.224 33.547 61.2526C33.547 79.2812 48.0767 93.8962 66 93.8962C83.9233 93.8962 98.453 79.2812 98.453 61.2526C98.453 43.224 83.9233 28.609 66 28.609ZM43.7569 61.2526C43.7569 48.8959 53.7155 38.8789 66 38.8789C78.2845 38.8789 88.2431 48.8959 88.2431 61.2526C88.2431 73.6093 78.2845 83.6263 66 83.6263C53.7155 83.6263 43.7569 73.6093 43.7569 61.2526Z" fill="white"/>
<path fill-rule="evenodd" clip-rule="evenodd" d="M12.4761 90.4868C7.77481 81.7947 5.10497 71.8305 5.10497 61.2526C5.10497 27.4237 32.3686 0 66 0C99.6314 0 126.895 27.4237 126.895 61.2526C126.895 71.829 124.226 81.7917 119.526 90.4829C119.454 90.6443 119.374 90.8036 119.284 90.9601L90.8486 140.548C101.327 142.876 110.591 146.67 117.664 151.614C126.009 157.445 132 165.431 132 174.955C132 186.649 123.055 195.975 111.418 202.073C99.5321 208.301 83.4662 212 66 212C48.5338 212 32.4679 208.301 20.5821 202.073C8.94515 195.975 0 186.649 0 174.955C0 165.513 5.89066 157.581 14.1183 151.766C21.2129 146.753 30.546 142.909 41.1121 140.557L12.7147 90.9571C12.6263 90.8028 12.5469 90.6458 12.4761 90.4868ZM73.545 170.724L85.4698 149.929C96.34 151.953 105.45 155.583 111.839 160.048C118.746 164.875 121.79 170.131 121.79 174.955C121.79 180.884 117.103 187.514 106.701 192.965C96.5468 198.286 82.1652 201.73 66 201.73C49.8348 201.73 35.4532 198.286 25.2993 192.965C14.8966 187.514 10.2099 180.884 10.2099 174.955C10.2099 170.172 13.2004 164.966 19.9879 160.17C26.3717 155.658 35.5291 151.983 46.4825 149.937L58.3805 170.719C61.7454 176.596 70.176 176.599 73.545 170.724ZM15.3149 61.2526C15.3149 33.0956 38.0074 10.2699 66 10.2699C93.9926 10.2699 116.685 33.0956 116.685 61.2526C116.685 70.7542 114.106 79.6342 109.616 87.24C109.542 87.3653 109.474 87.4924 109.412 87.6211L65.9652 163.388L22.5946 87.6349C22.5306 87.5015 22.4603 87.3697 22.3838 87.24C17.8942 79.6342 15.3149 70.7542 15.3149 61.2526Z" fill="white"/>
</svg>
