<svg width="212" height="212" viewBox="0 0 212 212" fill="none" xmlns="http://www.w3.org/2000/svg">
<path fill-rule="evenodd" clip-rule="evenodd" d="M8.63393 101.431H49.4196C49.9938 83.9019 53.8602 67.2048 60.4192 51.9389C51.3337 48.7362 42.6866 44.6032 34.5929 39.6543C19.3863 56.0135 9.7333 77.6058 8.63393 101.431ZM40.8745 33.4777C48.1689 37.7729 55.9243 41.3686 64.0492 44.1725C70.4289 31.571 78.6973 20.0887 88.4808 10.0989C70.3754 13.3848 54.0123 21.6721 40.8745 33.4777ZM101.431 9.55858C89.5874 20.0032 79.6844 32.5924 72.3289 46.7184C81.6508 49.2416 91.3937 50.7423 101.431 51.0928V9.55858ZM101.431 59.6264C90.0826 59.2546 79.0813 57.5026 68.5905 54.5328C62.2732 68.9747 58.534 84.801 57.9532 101.431H101.431V59.6264ZM109.96 101.431V59.6451C121.328 59.3224 132.352 57.6149 142.867 54.6852C149.144 69.086 152.859 84.8595 153.438 101.431H109.96ZM101.431 109.96H57.9334C58.4432 126.812 62.1961 142.849 68.5905 157.467C79.0813 154.497 90.0827 152.745 101.431 152.374V109.96ZM109.96 152.355V109.96H153.457C152.949 126.754 149.221 142.738 142.867 157.315C132.352 154.385 121.328 152.678 109.96 152.355ZM101.431 160.907C91.3937 161.258 81.6508 162.758 72.329 165.282C79.6844 179.408 89.5874 191.997 101.431 202.441V160.907ZM88.481 201.901C78.6974 191.911 70.429 180.429 64.0493 167.828C55.9243 170.631 48.1689 174.227 40.8746 178.522C54.0123 190.328 70.3755 198.615 88.481 201.901ZM34.593 172.346C42.6866 167.397 51.3337 163.264 60.4192 160.061C53.7843 144.618 49.9047 127.711 49.4009 109.96H8.6077C9.56929 134.026 19.2568 155.847 34.593 172.346ZM122.782 202.032C141.18 198.839 157.81 190.488 171.125 178.522C163.676 174.136 155.745 170.479 147.432 167.65C141.012 180.376 132.667 191.965 122.782 202.032ZM139.136 165.138C129.788 162.651 120.02 161.192 109.96 160.887V202.441C121.843 191.962 131.773 179.322 139.136 165.138ZM151.051 159.876C160.33 163.104 169.156 167.301 177.407 172.346C192.743 155.847 202.431 134.026 203.392 109.96H161.99C161.488 127.64 157.638 144.483 151.051 159.876ZM161.971 101.431H203.366C202.267 77.6058 192.614 56.0135 177.407 39.6543C169.156 44.6993 160.33 48.8964 151.051 52.1244C157.562 67.34 161.399 83.9729 161.971 101.431ZM147.431 44.3504C155.745 41.5214 163.676 37.8644 171.125 33.4777C157.81 21.512 141.18 13.1607 122.781 9.96792C132.667 20.0353 141.012 31.6239 147.431 44.3504ZM109.96 9.5587V51.1127C120.02 50.8084 129.788 49.3487 139.136 46.8619C131.773 32.6777 121.843 20.0387 109.96 9.5587ZM0 106C0 47.4578 47.4578 0 106 0C164.542 0 212 47.4578 212 106C212 164.542 164.542 212 106 212C47.4578 212 0 164.542 0 106Z" fill="white"/>
</svg>
