<svg width="287" height="212" viewBox="0 0 287 212" fill="none" xmlns="http://www.w3.org/2000/svg">
<path fill-rule="evenodd" clip-rule="evenodd" d="M37.0952 9.74713C37.0952 4.36394 41.4658 0 46.8571 0H136.51C139.202 0 141.774 1.10969 143.619 3.06679L164.157 24.8552H277.238C282.629 24.8552 287 29.2191 287 34.6023V168.138C287 173.521 282.629 177.885 277.238 177.885H249.905V202.253C249.905 207.636 245.534 212 240.143 212H9.7619C4.37054 212 0 207.636 0 202.253V43.8621C0 38.4789 4.37055 34.1149 9.7619 34.1149H37.0952V9.74713ZM46.8571 34.1149H99.4149C102.107 34.1149 104.679 35.2246 106.523 37.1817L127.061 58.9701H240.143C245.534 58.9701 249.905 63.3341 249.905 68.7172V168.138H277.238V34.6023H164.157C161.465 34.6023 158.893 33.4926 157.048 31.5355L136.51 9.74713H46.8571V34.1149ZM99.4149 43.8621H9.7619V202.253H240.143V68.7172H127.061C124.37 68.7172 121.797 67.6075 119.953 65.6505L99.4149 43.8621Z" fill="white"/>
</svg>
