<svg width="267" height="212" viewBox="0 0 267 212" fill="none" xmlns="http://www.w3.org/2000/svg">
<path fill-rule="evenodd" clip-rule="evenodd" d="M0 7.69813C0 3.44657 3.46074 0 7.7298 0L185.193 0C189.462 0 192.923 3.44656 192.923 7.69813V50.0378H259.27C263.539 50.0378 267 53.4844 267 57.736V166.793C267 171.044 263.539 174.491 259.27 174.491H239.946V204.287C239.946 211.613 230.64 214.798 226.118 209.018L199.109 174.491H81.807C77.538 174.491 74.0772 171.044 74.0772 166.793V124.453H67.8909L40.8818 158.98C36.3605 164.76 27.0543 161.576 27.0543 154.249V124.453H7.7298C3.46075 124.453 0 121.007 0 116.755L0 7.69813ZM68.2777 123.959C68.2771 123.959 68.2764 123.96 68.2758 123.961L68.2777 123.959ZM83.0953 124.453V165.51H199.739C202.122 165.51 204.372 166.605 205.836 168.477L230.928 200.552V173.208C230.928 168.956 234.388 165.51 238.657 165.51H257.982V59.019H192.923V116.755C192.923 121.007 189.462 124.453 185.193 124.453H83.0953ZM9.01809 8.98115V115.472H28.3426C32.6116 115.472 36.0724 118.919 36.0724 123.17V150.514L61.1637 118.439C62.6283 116.567 64.8783 115.472 67.2614 115.472H183.905V8.98115H9.01809ZM96.6224 26.9435C85.7721 26.9435 77.298 35.3024 77.298 45.2265C77.298 47.7066 75.2792 49.7171 72.7889 49.7171C70.2986 49.7171 68.2799 47.7066 68.2799 45.2265C68.2799 29.9956 81.147 17.9623 96.6224 17.9623C112.098 17.9623 124.965 29.9956 124.965 45.2265C124.965 58.9466 114.507 70.086 101.131 72.147V82.2738C101.131 84.7538 99.1127 86.7644 96.6224 86.7644C94.1322 86.7644 92.1134 84.7538 92.1134 82.2738V71.2077C92.1134 66.8295 95.6117 63.811 99.2577 63.3414C108.827 62.1091 115.947 54.3345 115.947 45.2265C115.947 35.3024 107.473 26.9435 96.6224 26.9435ZM96.6224 95.5851C99.1127 95.5851 101.131 97.5956 101.131 100.076V101.679C101.131 104.16 99.1127 106.17 96.6224 106.17C94.1322 106.17 92.1134 104.16 92.1134 101.679V100.076C92.1134 97.5956 94.1322 95.5851 96.6224 95.5851Z" fill="white"/>
</svg>
